<?xml version="1.0" encoding="UTF-8" standalone="no"?>
<svg
   xmlns:dc="http://purl.org/dc/elements/1.1/"
   xmlns:cc="http://creativecommons.org/ns#"
   xmlns:rdf="http://www.w3.org/1999/02/22-rdf-syntax-ns#"
   xmlns:svg="http://www.w3.org/2000/svg"
   xmlns="http://www.w3.org/2000/svg"
   xmlns:sodipodi="http://sodipodi.sourceforge.net/DTD/sodipodi-0.dtd"
   xmlns:inkscape="http://www.inkscape.org/namespaces/inkscape"
   width="52.916653mm"
   height="26.45834mm"
   viewBox="0 0 52.916652 26.458339"
   version="1.1"
   id="svg8"
   inkscape:version="1.0.2 (e86c870879, 2021-01-15)">
  <defs
     id="defs2" />
  <sodipodi:namedview
     id="base"
     pagecolor="#ffffff"
     bordercolor="#666666"
     borderopacity="1.0"
     inkscape:pageopacity="0.0"
     inkscape:pageshadow="2"
     inkscape:zoom="1"
     inkscape:cx="237.82108"
     inkscape:cy="216.23935"
     inkscape:document-units="mm"
     inkscape:current-layer="layer1"
     inkscape:document-rotation="0"
     showgrid="false"
     inkscape:window-width="1267"
     inkscape:window-height="852"
     inkscape:window-x="270"
     inkscape:window-y="21"
     inkscape:window-maximized="0"
     fit-margin-top="0"
     fit-margin-left="0"
     fit-margin-right="0"
     fit-margin-bottom="0" />
  <metadata
     id="metadata5">
    <rdf:RDF>
      <cc:Work
         rdf:about="">
        <dc:format>image/svg+xml</dc:format>
        <dc:type
           rdf:resource="http://purl.org/dc/dcmitype/StillImage" />
        <dc:title></dc:title>
      </cc:Work>
    </rdf:RDF>
  </metadata>
  <g
     inkscape:label="Layer 1"
     inkscape:groupmode="layer"
     id="layer1"
     transform="translate(372.59237,33.24039)">
    <text
       xml:space="preserve"
       style="font-size:10.5833px;line-height:1.25;font-family:'DM Sans';-inkscape-font-specification:'DM Sans';word-spacing:0px;stroke-width:0.264583"
       x="309.92435"
       y="-180.63101"
       id="text835"><tspan
         sodipodi:role="line"
         id="tspan833"
         x="309.92435"
         y="-180.63101"
         style="stroke-width:0.264583" /></text>
    <text
       xml:space="preserve"
       style="font-size:13.5113px;line-height:1.25;font-family:'DM Sans';-inkscape-font-specification:'DM Sans';word-spacing:0px;stroke-width:0.337783"
       x="390.73309"
       y="-277.79807"
       id="text835-1"
       transform="scale(0.99921819,1.0007824)"><tspan
         sodipodi:role="line"
         id="tspan833-7"
         x="390.73309"
         y="-277.79807"
         style="stroke-width:0.337783" /></text>
    <text
       xml:space="preserve"
       style="font-size:10.5833px;line-height:1.25;font-family:'DM Sans';-inkscape-font-specification:'DM Sans';word-spacing:0px;stroke-width:0.264583"
       x="212.60535"
       y="-247.64508"
       id="text835-3"><tspan
         sodipodi:role="line"
         id="tspan833-3"
         x="212.60535"
         y="-247.64508"
         style="stroke-width:0.264583" /></text>
    <g
       id="g1206"
       transform="translate(205.12054,123.49109)">
      <path
         id="path916-6-9"
         style="fill:#bcd1ef;fill-opacity:1;stroke-width:6.75546;stroke-linecap:round;stroke-linejoin:round"
         d="m -576.32888,-156.73148 c -0.76687,0 -1.38403,0.62082 -1.38403,1.39224 v 9.15591 c 0,0.77142 0.61716,1.39224 1.38403,1.39224 h 9.10143 c 0.76689,0 1.38452,-0.62082 1.38452,-1.39224 v -9.15591 c 0,-0.77142 -0.61763,-1.39224 -1.38452,-1.39224 z m 1.84922,1.799 h 5.59846 l -3.95808,7.21618 h 3.88 v 1.12624 h -5.71583 l 3.93224,-7.20319 h -3.73679 z" />
      <g
         aria-label="O"
         transform="scale(0.98328338,1.0170008)"
         id="text920-1-4"
         style="font-size:12.5109px;line-height:1.25;font-family:'Tw Cen MT';-inkscape-font-specification:'Tw Cen MT';letter-spacing:0px;word-spacing:0px;fill:#bcd1ef;fill-opacity:1;stroke-width:0.312771">
        <path
           d="m -570.37769,-148.34596 q 0,-1.68604 1.27064,-2.88948 1.27064,-1.20344 3.05442,-1.20344 1.74102,0 2.99944,1.21566 1.25842,1.20955 1.25842,2.87726 0,1.76545 -1.2462,2.98722 -1.2401,1.21566 -3.04831,1.21566 -1.78378,0 -3.0361,-1.22788 -1.25231,-1.22787 -1.25231,-2.975 z m 7.45278,0.0489 q 0,-1.28897 -0.92854,-2.16864 -0.92854,-0.88578 -2.2847,-0.88578 -1.28897,0 -2.2114,0.898 -0.91633,0.898 -0.91633,2.15642 0,1.27675 0.94076,2.16253 0.94687,0.87967 2.31525,0.87967 1.25842,0 2.16864,-0.898 0.91632,-0.90411 0.91632,-2.1442 z"
           style="fill:#bcd1ef;fill-opacity:1;stroke-width:0.312771"
           id="path1174" />
      </g>
      <g
         aria-label="A"
         transform="scale(0.99921819,1.0007824)"
         id="text924-4-3"
         style="font-size:13.0947px;line-height:1.25;font-family:'Tw Cen MT';-inkscape-font-specification:'Tw Cen MT';word-spacing:0px;fill:#bcd1ef;fill-opacity:1;stroke-width:0.327368">
        <path
           d="m -572.24447,-140.10088 3.84913,8.45913 h -1.16369 l -0.95269,-2.08441 h -3.4591 l -0.92712,2.08441 h -1.15729 z m 0,2.55117 -1.31075,2.89643 h 2.6215 z"
           style="fill:#bcd1ef;fill-opacity:1;stroke-width:0.327368"
           id="path1177" />
      </g>
      <g
         aria-label="U"
         transform="scale(0.99921819,1.0007824)"
         id="text928-3-9"
         style="font-size:13.0237px;line-height:1.25;font-family:'Tw Cen MT';-inkscape-font-specification:'Tw Cen MT';letter-spacing:0px;word-spacing:0px;fill:#bcd1ef;fill-opacity:1;stroke-width:0.325593">
        <path
           d="m -545.73052,-140.04406 h 1.1065 v 4.97927 q 0,1.10651 0.52782,1.71064 0.53417,0.60412 1.50713,0.60412 0.96661,0 1.50078,-0.55325 0.54054,-0.55961 0.54054,-1.57073 v -5.17005 h 1.1065 v 5.09374 q 0,1.48806 -0.85213,2.37835 -0.84578,0.89029 -2.25753,0.89029 -1.44355,0 -2.31476,-0.90301 -0.86485,-0.90301 -0.86485,-2.66451 z"
           style="fill:#bcd1ef;fill-opacity:1;stroke-width:0.325593"
           id="path1180" />
      </g>
      <path
         id="path930-9-7"
         style="fill:#bcd1ef;fill-opacity:1;stroke-width:6.46886;stroke-linecap:round;stroke-linejoin:round"
         d="m -560.9906,-141.68214 c -0.73593,0 -1.32821,0.59319 -1.32821,1.33029 v 8.74842 c 0,0.7371 0.59228,1.33029 1.32821,1.33029 h 8.73428 c 0.73595,0 1.32867,-0.59319 1.32867,-1.33029 v -8.74842 c 0,-0.7371 -0.59272,-1.33029 -1.32867,-1.33029 z m 1.77462,1.71893 h 5.37262 l -3.79843,6.89504 h 3.72349 v 1.0761 h -5.48525 l 3.77361,-6.8826 h -3.58604 z" />
      <g
         aria-label="N"
         transform="scale(0.99921819,1.0007824)"
         id="text934-9-3"
         style="font-size:13.3084px;line-height:1.25;font-family:'Tw Cen MT';-inkscape-font-specification:'Tw Cen MT';letter-spacing:0px;word-spacing:0px;fill:#bcd1ef;fill-opacity:1;stroke-width:0.332713">
        <path
           d="m -546.21195,-155.07035 6.12135,6.2968 v -5.96539 h 1.13069 v 8.66216 l -6.12134,-6.2643 v 5.88091 h -1.1307 z"
           style="fill:#bcd1ef;fill-opacity:1;stroke-width:0.332713"
           id="path1183" />
      </g>
      <g
         aria-label="A"
         transform="scale(0.99921819,1.0007824)"
         id="text938-6-9"
         style="font-size:13.545px;line-height:1.25;font-family:'Tw Cen MT';-inkscape-font-specification:'Tw Cen MT';letter-spacing:0px;word-spacing:0px;fill:#bcd1ef;fill-opacity:1;stroke-width:0.338625">
        <path
           d="m -529.18836,-155.06789 3.98149,8.75002 h -1.20371 l -0.98545,-2.15609 h -3.57805 l -0.959,2.15609 h -1.19709 z m 0,2.6389 -1.35582,2.99603 h 2.71164 z"
           style="fill:#bcd1ef;fill-opacity:1;stroke-width:0.338625"
           id="path1186" />
      </g>
      <g
         aria-label="L"
         transform="scale(0.99921819,1.0007824)"
         id="text942-5-5"
         style="font-size:13.5197px;line-height:1.25;font-family:'Tw Cen MT';-inkscape-font-specification:'Tw Cen MT';letter-spacing:0px;word-spacing:0px;fill:#bcd1ef;fill-opacity:1;stroke-width:0.337994">
        <path
           d="m -531.10609,-140.00183 h 1.13545 v 7.27476 h 2.73959 v 1.13544 h -3.87504 z"
           style="fill:#bcd1ef;fill-opacity:1;stroke-width:0.337994"
           id="path1189" />
      </g>
    </g>
    <text
       xml:space="preserve"
       style="font-size:13.5113px;line-height:1.25;font-family:'DM Sans';-inkscape-font-specification:'DM Sans';word-spacing:0px;stroke-width:0.337783"
       x="293.33795"
       y="-344.75974"
       id="text835-1-2"
       transform="scale(0.9992182,1.0007824)"><tspan
         sodipodi:role="line"
         id="tspan833-7-2"
         x="293.33795"
         y="-344.75974"
         style="stroke-width:0.337783" /></text>
  </g>
</svg>
